<?xml version="1.0"?>
<svg width="500" height="200" xmlns="http://www.w3.org/2000/svg" xmlns:svg="http://www.w3.org/2000/svg">
 <g class="layer">
  <title>Layer 1</title>
  <path d="m434.19,53.83l0,-32.59l-91.19,0l-15.01,108.82l-14.83,-108.82l-32.88,0l3.67,29.06c-3.79,-7.45 -17.25,-29.06 -46.88,-29.06c-0.2,-0.01 -32.93,0 -32.93,0l-0.13,158.61l-23.97,-158.61l-43.07,-0.01l-24.8,164.35l0.02,-164.34l-41.23,0l-14.86,92.32l-14.47,-92.32l-41.24,0l0,178.67l32.47,0l0,-86.12l14.78,86.12l17.26,0l14.57,-86.12l0,86.12l62.6,0l3.79,-27.48l25.2,0l3.78,27.48l61.46,0.04l0.05,0l0,-0.04l0.07,0l0,-57.98l7.52,-1.1l15.6,59.12l31.8,0l-0.02,-0.04l0.1,0l-20.47,-69.27c10.36,-7.64 22.08,-27 18.96,-45.54l0,0c0.04,0.23 19.33,114.93 19.33,114.93l37.8,-0.12l25.83,-161.93l0,161.93l61.3,0l0,-32.12l-29.1,0l0,-40.97l29.1,0l0,-32.62l-29.1,0l0,-40.37l29.1,0zm-284.51,90.28l8.93,-76.39l9.25,76.39l-18.17,0zm94.38,-35.28c-2.49,1.2 -5.09,1.8 -7.63,1.81l0,-57.46c0.04,0 0.1,-0.01 0.16,-0.01c2.53,-0.02 21.49,0.76 21.49,28.42c0,14.47 -6.45,23.59 -14.02,27.25zm255.55,58.93l0,32.12l-59.81,0l0,-178.66l32.21,0l0,146.54l27.61,0z" fill="#fff" id="svg_2"/>
 </g>
</svg>